<svg width="17" height="17" viewBox="0 0 17 17" xmlns="http://www.w3.org/2000/svg" xmlns:xlink="http://www.w3.org/1999/xlink"><title>Combined Shape</title><defs><path d="M1.5 3a1.5 1.5 0 1 1 0-3 1.5 1.5 0 0 1 0 3zm0 7a1.5 1.5 0 1 1 0-3 1.5 1.5 0 0 1 0 3zm0 7a1.5 1.5 0 1 1 0-3 1.5 1.5 0 0 1 0 3zm14-14a1.5 1.5 0 1 1 0-3 1.5 1.5 0 0 1 0 3zm0 7a1.5 1.5 0 1 1 0-3 1.5 1.5 0 0 1 0 3zm0 7a1.5 1.5 0 1 1 0-3 1.5 1.5 0 0 1 0 3zm-7-14a1.5 1.5 0 1 1 0-3 1.5 1.5 0 0 1 0 3zm0 7a1.5 1.5 0 1 1 0-3 1.5 1.5 0 0 1 0 3zm0 7a1.5 1.5 0 1 1 0-3 1.5 1.5 0 0 1 0 3z" id="a"/></defs><use fill="#262628" xlink:href="#a" fill-rule="evenodd"/></svg>