<svg width="50" height="50" viewBox="0 0 50 50" xmlns="http://www.w3.org/2000/svg" xmlns:xlink="http://www.w3.org/1999/xlink"><title>Group 2</title><defs><path d="M7.993 14.58A1 1 0 0 1 8 16a.997.997 0 0 1-1.418-.004L.297 9.71a1 1 0 0 1 0-1.422l6.285-6.285A1 1 0 1 1 7.993 3.42L3.414 8h13.584a.999.999 0 1 1 0 2H3.414l4.58 4.58z" id="a"/></defs><g fill="none" fill-rule="evenodd"><path fill="#FFF" d="M0 0h50v50H0z"/><g transform="translate(16 15)"><mask id="b" fill="#fff"><use xlink:href="#a"/></mask><use fill="#262628" fill-rule="nonzero" xlink:href="#a"/><g mask="url(#b)" fill="#262628"><path d="M0 0h18v18H0z"/></g></g></g></svg>