<svg width="50" height="50" viewBox="0 0 50 50" xmlns="http://www.w3.org/2000/svg" xmlns:xlink="http://www.w3.org/1999/xlink"><title>Group 2</title><defs><path d="M10.007 14.58A1.002 1.002 0 0 0 10 16a.997.997 0 0 0 1.418-.004l6.285-6.285a1 1 0 0 0 0-1.422l-6.285-6.285a1 1 0 0 0-1.412 1.417L14.587 8H1.003A.999.999 0 0 0 0 9c0 .552.453 1 1.003 1h13.583l-4.58 4.58z" id="a"/></defs><g fill="none" fill-rule="evenodd"><path fill="#FFF" d="M0 0h50v50H0z"/><g transform="translate(16 15)"><mask id="b" fill="#fff"><use xlink:href="#a"/></mask><use fill="#262628" fill-rule="nonzero" xlink:href="#a"/><g mask="url(#b)" fill="#262628"><path d="M0 0h18v18H0z"/></g></g></g></svg>