<?xml version="1.0" encoding="UTF-8" standalone="no"?>
<svg width="17px" height="17px" viewBox="0 0 17 17" version="1.1" xmlns="http://www.w3.org/2000/svg" xmlns:xlink="http://www.w3.org/1999/xlink">
    <!-- Generator: Sketch 49 (51002) - http://www.bohemiancoding.com/sketch -->
    <title>Combined Shape</title>
    <desc>Created with Sketch.</desc>
    <defs>
        <path d="M1.5,3 C0.671572875,3 0,2.32842712 0,1.5 C0,0.671572875 0.671572875,0 1.5,0 C2.32842712,0 3,0.671572875 3,1.5 C3,2.32842712 2.32842712,3 1.5,3 Z M1.5,10 C0.671572875,10 0,9.32842712 0,8.5 C0,7.67157288 0.671572875,7 1.5,7 C2.32842712,7 3,7.67157288 3,8.5 C3,9.32842712 2.32842712,10 1.5,10 Z M1.5,17 C0.671572875,17 0,16.3284271 0,15.5 C0,14.6715729 0.671572875,14 1.5,14 C2.32842712,14 3,14.6715729 3,15.5 C3,16.3284271 2.32842712,17 1.5,17 Z M15.5,3 C14.6715729,3 14,2.32842712 14,1.5 C14,0.671572875 14.6715729,0 15.5,0 C16.3284271,0 17,0.671572875 17,1.5 C17,2.32842712 16.3284271,3 15.5,3 Z M15.5,10 C14.6715729,10 14,9.32842712 14,8.5 C14,7.67157288 14.6715729,7 15.5,7 C16.3284271,7 17,7.67157288 17,8.5 C17,9.32842712 16.3284271,10 15.5,10 Z M15.5,17 C14.6715729,17 14,16.3284271 14,15.5 C14,14.6715729 14.6715729,14 15.5,14 C16.3284271,14 17,14.6715729 17,15.5 C17,16.3284271 16.3284271,17 15.5,17 Z M8.5,3 C7.67157288,3 7,2.32842712 7,1.5 C7,0.671572875 7.67157288,0 8.5,0 C9.32842712,0 10,0.671572875 10,1.5 C10,2.32842712 9.32842712,3 8.5,3 Z M8.5,10 C7.67157288,10 7,9.32842712 7,8.5 C7,7.67157288 7.67157288,7 8.5,7 C9.32842712,7 10,7.67157288 10,8.5 C10,9.32842712 9.32842712,10 8.5,10 Z M8.5,17 C7.67157288,17 7,16.3284271 7,15.5 C7,14.6715729 7.67157288,14 8.5,14 C9.32842712,14 10,14.6715729 10,15.5 C10,16.3284271 9.32842712,17 8.5,17 Z" id="path-1"></path>
    </defs>
    <g id="Symbols" stroke="none" stroke-width="1" fill="none" fill-rule="evenodd">
        <mask id="mask-2" fill="white">
            <use xlink:href="#path-1"></use>
        </mask>
        <use id="Combined-Shape" fill="#FFFFFF" xlink:href="#path-1"></use>
    </g>
</svg>